<?xml version="1.0" encoding="UTF-8" standalone="no"?>
<!DOCTYPE svg PUBLIC "-//W3C//DTD SVG 1.1//EN" "http://www.w3.org/Graphics/SVG/1.1/DTD/svg11.dtd">
<svg width="100%" height="100%" viewBox="0 0 800 300" version="1.1" xmlns="http://www.w3.org/2000/svg" xmlns:xlink="http://www.w3.org/1999/xlink" xml:space="preserve" xmlns:serif="http://www.serif.com/" style="fill-rule:evenodd;clip-rule:evenodd;stroke-miterlimit:10;">
    <g transform="matrix(1.97568,0,0,1.97568,817.234,229.662)">
        <path d="M0,3.665L-419.61,3.665C-420.622,3.665 -421.443,2.845 -421.443,1.833C-421.443,0.821 -420.622,0 -419.61,0L0,0C1.012,0 1.832,0.821 1.832,1.833C1.832,2.845 1.012,3.665 0,3.665" style="fill:rgb(136,186,196);fill-rule:nonzero;"/>
    </g>
    <g transform="matrix(-1.97568,0,0,1.97568,951.374,-195.507)">
        <rect x="170.144" y="184.656" width="187.413" height="21.813" style="fill:rgb(88,90,92);"/>
    </g>
    <g transform="matrix(-1.97568,0,0,1.97568,365.55,-152.412)">
        <rect x="63.679" y="179.877" width="103.825" height="9.558" style="fill:rgb(88,90,92);"/>
    </g>
    <g transform="matrix(1.97568,0,0,1.97568,119.117,218.166)">
        <path d="M0,0C0,3.214 -2.605,5.819 -5.819,5.819C-9.033,5.819 -11.638,3.214 -11.638,0C-11.638,-3.214 -9.033,-5.819 -5.819,-5.819C-2.605,-5.819 0,-3.214 0,0" style="fill:rgb(119,121,123);fill-rule:nonzero;"/>
    </g>
    <g transform="matrix(1.97568,0,0,1.97568,148.675,218.166)">
        <path d="M0,0C0,3.214 -2.605,5.819 -5.819,5.819C-9.033,5.819 -11.638,3.214 -11.638,0C-11.638,-3.214 -9.033,-5.819 -5.819,-5.819C-2.605,-5.819 0,-3.214 0,0" style="fill:rgb(119,121,123);fill-rule:nonzero;"/>
    </g>
    <g transform="matrix(1.97568,0,0,1.97568,178.232,218.166)">
        <path d="M0,0C0,3.214 -2.605,5.819 -5.819,5.819C-9.033,5.819 -11.638,3.214 -11.638,0C-11.638,-3.214 -9.033,-5.819 -5.819,-5.819C-2.605,-5.819 0,-3.214 0,0" style="fill:rgb(119,121,123);fill-rule:nonzero;"/>
    </g>
    <g transform="matrix(-1.97568,0,0,1.97568,365.55,-263.563)">
        <rect x="53.864" y="186.036" width="123.455" height="53.5" style="fill:rgb(242,243,248);"/>
    </g>
    <g transform="matrix(-1.97568,0,0,1.97568,365.55,-201.385)">
        <rect x="52.133" y="186.036" width="126.917" height="22.028" style="fill:rgb(255,188,84);"/>
    </g>
    <g transform="matrix(1.97568,0,0,1.97568,240.834,103.983)">
        <path d="M0,-10.993L-104.932,-10.993C-111.003,-10.993 -115.925,-6.071 -115.925,0L10.993,0C10.993,-6.071 6.071,-10.993 0,-10.993" style="fill:rgb(166,168,170);fill-rule:nonzero;"/>
    </g>
    <g transform="matrix(1.97568,0,0,1.97568,11.8047,202.472)">
        <path d="M0,3.649L0,7.944L40.017,7.944L44.669,3.292L83.271,3.292L86.9,6.922L126.917,6.922L126.917,3.649C126.917,3.649 68.788,-3.596 67.456,-3.945C66.124,-4.295 22.602,-2.547 22.602,-2.547L0,3.649Z" style="fill:rgb(255,188,84);fill-rule:nonzero;"/>
    </g>
    <g transform="matrix(1.97568,0,0,1.97568,23.784,114.538)">
        <path d="M0,21.407L-4.332,21.407L-4.332,0L0,0C2.183,0 3.952,1.77 3.952,3.953L3.952,17.455C3.952,19.638 2.183,21.407 0,21.407" style="fill:rgb(119,121,123);fill-rule:nonzero;"/>
    </g>
    <g transform="matrix(1.97568,0,0,1.97568,250.573,114.538)">
        <path d="M0,21.407L4.332,21.407L4.332,0L0,0C-2.183,0 -3.952,1.77 -3.952,3.953L-3.952,17.455C-3.952,19.638 -2.183,21.407 0,21.407" style="fill:rgb(119,121,123);fill-rule:nonzero;"/>
    </g>
    <g transform="matrix(1.97568,0,0,1.97568,91.7528,114.538)">
        <path d="M0,21.407L-3.977,21.407C-6.855,21.407 -9.187,19.074 -9.187,16.197L-9.187,5.211C-9.187,2.333 -6.855,0 -3.977,0L0,0C2.877,0 5.21,2.333 5.21,5.211L5.21,16.197C5.21,19.074 2.877,21.407 0,21.407" style="fill:rgb(119,121,123);fill-rule:nonzero;"/>
    </g>
    <g transform="matrix(1.97568,0,0,1.97568,124.656,114.538)">
        <path d="M0,21.407L-3.977,21.407C-6.855,21.407 -9.187,19.074 -9.187,16.197L-9.187,5.211C-9.187,2.333 -6.855,0 -3.977,0L0,0C2.877,0 5.21,2.333 5.21,5.211L5.21,16.197C5.21,19.074 2.877,21.407 0,21.407" style="fill:rgb(119,121,123);fill-rule:nonzero;"/>
    </g>
    <g transform="matrix(1.97568,0,0,1.97568,157.559,114.538)">
        <path d="M0,21.407L-3.977,21.407C-6.855,21.407 -9.187,19.074 -9.187,16.197L-9.187,5.211C-9.187,2.333 -6.855,0 -3.977,0L0,0C2.877,0 5.21,2.333 5.21,5.211L5.21,16.197C5.21,19.074 2.877,21.407 0,21.407" style="fill:rgb(119,121,123);fill-rule:nonzero;"/>
    </g>
    <g transform="matrix(1.97568,0,0,1.97568,190.462,114.538)">
        <path d="M0,21.407L-3.977,21.407C-6.855,21.407 -9.187,19.074 -9.187,16.197L-9.187,5.211C-9.187,2.333 -6.855,0 -3.977,0L0,0C2.877,0 5.21,2.333 5.21,5.211L5.21,16.197C5.21,19.074 2.877,21.407 0,21.407" style="fill:rgb(119,121,123);fill-rule:nonzero;"/>
    </g>
    <g transform="matrix(1.97568,0,0,1.97568,-91.1925,-410.609)">
        <g opacity="0.399994">
            <g transform="matrix(1,0,0,1,76.8948,267.555)">
                <clipPath id="_clip1">
                    <rect x="-11.941" y="-0.5" width="15.653" height="39.768" clip-rule="nonzero"/>
                </clipPath>
                <g clip-path="url(#_clip1)">
                    <path d="M0,38.768L-8.23,38.768C-10.003,38.768 -11.441,37.33 -11.441,35.557L-11.441,3.212C-11.441,1.438 -10.003,0 -8.23,0L0,0C1.774,0 3.211,1.438 3.211,3.212L3.211,35.557C3.211,37.33 1.774,38.768 0,38.768Z" style="fill:none;stroke:rgb(119,121,123);stroke-width:0.51px;"/>
                </g>
            </g>
        </g>
    </g>
    <g transform="matrix(1.97568,0,0,1.97568,-91.1925,-410.609)">
        <g opacity="0.399994">
            <g transform="matrix(1,0,0,1,162.518,267.555)">
                <clipPath id="_clip2">
                    <rect x="-11.942" y="-0.5" width="15.653" height="39.768" clip-rule="nonzero"/>
                </clipPath>
                <g clip-path="url(#_clip2)">
                    <path d="M0,38.768L-8.23,38.768C-10.003,38.768 -11.441,37.33 -11.441,35.557L-11.441,3.212C-11.441,1.438 -10.003,0 -8.23,0L0,0C1.774,0 3.211,1.438 3.211,3.212L3.211,35.557C3.211,37.33 1.774,38.768 0,38.768Z" style="fill:none;stroke:rgb(119,121,123);stroke-width:0.51px;"/>
                </g>
            </g>
        </g>
    </g>
    <g transform="matrix(-1.97568,0,0,1.97568,896.648,-152.412)">
        <rect x="198.088" y="179.877" width="103.825" height="9.558" style="fill:rgb(88,90,92);"/>
    </g>
    <g transform="matrix(1.97568,0,0,1.97568,384.666,218.166)">
        <path d="M0,0C0,3.214 -2.605,5.819 -5.819,5.819C-9.033,5.819 -11.638,3.214 -11.638,0C-11.638,-3.214 -9.033,-5.819 -5.819,-5.819C-2.605,-5.819 0,-3.214 0,0" style="fill:rgb(119,121,123);fill-rule:nonzero;"/>
    </g>
    <g transform="matrix(1.97568,0,0,1.97568,414.223,218.166)">
        <path d="M0,0C0,3.214 -2.605,5.819 -5.819,5.819C-9.033,5.819 -11.638,3.214 -11.638,0C-11.638,-3.214 -9.033,-5.819 -5.819,-5.819C-2.605,-5.819 0,-3.214 0,0" style="fill:rgb(119,121,123);fill-rule:nonzero;"/>
    </g>
    <g transform="matrix(1.97568,0,0,1.97568,443.78,218.166)">
        <path d="M0,0C0,3.214 -2.605,5.819 -5.819,5.819C-9.033,5.819 -11.638,3.214 -11.638,0C-11.638,-3.214 -9.033,-5.819 -5.819,-5.819C-2.605,-5.819 0,-3.214 0,0" style="fill:rgb(119,121,123);fill-rule:nonzero;"/>
    </g>
    <g transform="matrix(-1.97568,0,0,1.97568,896.648,-263.563)">
        <rect x="188.273" y="186.036" width="123.455" height="53.5" style="fill:rgb(242,243,248);"/>
    </g>
    <g transform="matrix(-1.97568,0,0,1.97568,896.648,-201.385)">
        <rect x="186.542" y="186.036" width="126.917" height="22.028" style="fill:rgb(255,188,84);"/>
    </g>
    <g transform="matrix(1.97568,0,0,1.97568,506.382,103.983)">
        <path d="M0,-10.993L-104.932,-10.993C-111.003,-10.993 -115.925,-6.071 -115.925,0L10.993,0C10.993,-6.071 6.071,-10.993 0,-10.993" style="fill:rgb(166,168,170);fill-rule:nonzero;"/>
    </g>
    <g transform="matrix(1.97568,0,0,1.97568,277.353,202.472)">
        <path d="M0,3.649L0,7.944L40.017,7.944L44.669,3.292L83.271,3.292L86.9,6.922L126.917,6.922L126.917,3.649C126.917,3.649 68.788,-3.596 67.456,-3.945C66.124,-4.295 22.602,-2.547 22.602,-2.547L0,3.649Z" style="fill:rgb(255,188,84);fill-rule:nonzero;"/>
    </g>
    <g transform="matrix(1.97568,0,0,1.97568,289.332,114.538)">
        <path d="M0,21.407L-4.332,21.407L-4.332,0L0,0C2.183,0 3.952,1.77 3.952,3.953L3.952,17.455C3.952,19.638 2.183,21.407 0,21.407" style="fill:rgb(119,121,123);fill-rule:nonzero;"/>
    </g>
    <g transform="matrix(1.97568,0,0,1.97568,516.121,114.538)">
        <path d="M0,21.407L4.332,21.407L4.332,0L0,0C-2.183,0 -3.952,1.77 -3.952,3.953L-3.952,17.455C-3.952,19.638 -2.183,21.407 0,21.407" style="fill:rgb(119,121,123);fill-rule:nonzero;"/>
    </g>
    <g transform="matrix(1.97568,0,0,1.97568,357.301,114.538)">
        <path d="M0,21.407L-3.977,21.407C-6.855,21.407 -9.187,19.074 -9.187,16.197L-9.187,5.211C-9.187,2.333 -6.855,0 -3.977,0L0,0C2.877,0 5.21,2.333 5.21,5.211L5.21,16.197C5.21,19.074 2.877,21.407 0,21.407" style="fill:rgb(119,121,123);fill-rule:nonzero;"/>
    </g>
    <g transform="matrix(1.97568,0,0,1.97568,390.204,114.538)">
        <path d="M0,21.407L-3.977,21.407C-6.855,21.407 -9.187,19.074 -9.187,16.197L-9.187,5.211C-9.187,2.333 -6.855,0 -3.977,0L0,0C2.877,0 5.21,2.333 5.21,5.211L5.21,16.197C5.21,19.074 2.877,21.407 0,21.407" style="fill:rgb(119,121,123);fill-rule:nonzero;"/>
    </g>
    <g transform="matrix(1.97568,0,0,1.97568,423.107,114.538)">
        <path d="M0,21.407L-3.977,21.407C-6.855,21.407 -9.187,19.074 -9.187,16.197L-9.187,5.211C-9.187,2.333 -6.855,0 -3.977,0L0,0C2.877,0 5.21,2.333 5.21,5.211L5.21,16.197C5.21,19.074 2.877,21.407 0,21.407" style="fill:rgb(119,121,123);fill-rule:nonzero;"/>
    </g>
    <g transform="matrix(1.97568,0,0,1.97568,456.01,114.538)">
        <path d="M0,21.407L-3.977,21.407C-6.855,21.407 -9.187,19.074 -9.187,16.197L-9.187,5.211C-9.187,2.333 -6.855,0 -3.977,0L0,0C2.877,0 5.21,2.333 5.21,5.211L5.21,16.197C5.21,19.074 2.877,21.407 0,21.407" style="fill:rgb(119,121,123);fill-rule:nonzero;"/>
    </g>
    <g transform="matrix(1.97568,0,0,1.97568,-91.1925,-410.609)">
        <g opacity="0.399994">
            <g transform="matrix(1,0,0,1,211.303,267.555)">
                <clipPath id="_clip3">
                    <rect x="-11.941" y="-0.5" width="15.653" height="39.768" clip-rule="nonzero"/>
                </clipPath>
                <g clip-path="url(#_clip3)">
                    <path d="M0,38.768L-8.23,38.768C-10.003,38.768 -11.441,37.33 -11.441,35.557L-11.441,3.212C-11.441,1.438 -10.003,0 -8.23,0L0,0C1.774,0 3.211,1.438 3.211,3.212L3.211,35.557C3.211,37.33 1.774,38.768 0,38.768Z" style="fill:none;stroke:rgb(119,121,123);stroke-width:0.51px;"/>
                </g>
            </g>
        </g>
    </g>
    <g transform="matrix(1.97568,0,0,1.97568,-91.1925,-410.609)">
        <g opacity="0.399994">
            <g transform="matrix(1,0,0,1,296.926,267.555)">
                <clipPath id="_clip4">
                    <rect x="-11.941" y="-0.5" width="15.653" height="39.768" clip-rule="nonzero"/>
                </clipPath>
                <g clip-path="url(#_clip4)">
                    <path d="M0,38.768L-8.23,38.768C-10.003,38.768 -11.441,37.33 -11.441,35.557L-11.441,3.212C-11.441,1.438 -10.003,0 -8.23,0L0,0C1.774,0 3.211,1.438 3.211,3.212L3.211,35.557C3.211,37.33 1.774,38.768 0,38.768Z" style="fill:none;stroke:rgb(119,121,123);stroke-width:0.51px;"/>
                </g>
            </g>
        </g>
    </g>
    <g transform="matrix(-1.97568,0,0,1.97568,1427.74,-152.412)">
        <rect x="332.496" y="179.877" width="103.825" height="9.558" style="fill:rgb(88,90,92);"/>
    </g>
    <g transform="matrix(1.97568,0,0,1.97568,650.214,218.166)">
        <path d="M0,0C0,3.214 -2.605,5.819 -5.819,5.819C-9.033,5.819 -11.638,3.214 -11.638,0C-11.638,-3.214 -9.033,-5.819 -5.819,-5.819C-2.605,-5.819 0,-3.214 0,0" style="fill:rgb(119,121,123);fill-rule:nonzero;"/>
    </g>
    <g transform="matrix(1.97568,0,0,1.97568,679.771,218.166)">
        <path d="M0,0C0,3.214 -2.605,5.819 -5.819,5.819C-9.033,5.819 -11.638,3.214 -11.638,0C-11.638,-3.214 -9.033,-5.819 -5.819,-5.819C-2.605,-5.819 0,-3.214 0,0" style="fill:rgb(119,121,123);fill-rule:nonzero;"/>
    </g>
    <g transform="matrix(1.97568,0,0,1.97568,709.329,218.166)">
        <path d="M0,0C0,3.214 -2.605,5.819 -5.819,5.819C-9.033,5.819 -11.638,3.214 -11.638,0C-11.638,-3.214 -9.033,-5.819 -5.819,-5.819C-2.605,-5.819 0,-3.214 0,0" style="fill:rgb(119,121,123);fill-rule:nonzero;"/>
    </g>
    <g transform="matrix(-1.97568,0,0,1.97568,1427.74,-263.563)">
        <rect x="322.681" y="186.036" width="123.455" height="53.5" style="fill:rgb(242,243,248);"/>
    </g>
    <g transform="matrix(-1.97568,0,0,1.97568,1427.74,-201.385)">
        <rect x="320.95" y="186.036" width="126.917" height="22.028" style="fill:rgb(255,188,84);"/>
    </g>
    <g transform="matrix(1.97568,0,0,1.97568,771.93,103.983)">
        <path d="M0,-10.993L-104.932,-10.993C-111.003,-10.993 -115.925,-6.071 -115.925,0L10.993,0C10.993,-6.071 6.071,-10.993 0,-10.993" style="fill:rgb(166,168,170);fill-rule:nonzero;"/>
    </g>
    <g transform="matrix(1.97568,0,0,1.97568,542.901,202.472)">
        <path d="M0,3.649L0,7.944L40.017,7.944L44.669,3.292L83.271,3.292L86.9,6.922L126.917,6.922L126.917,3.649C126.917,3.649 68.788,-3.596 67.456,-3.945C66.124,-4.295 22.602,-2.547 22.602,-2.547L0,3.649Z" style="fill:rgb(255,188,84);fill-rule:nonzero;"/>
    </g>
    <g transform="matrix(1.97568,0,0,1.97568,554.88,114.538)">
        <path d="M0,21.407L-4.332,21.407L-4.332,0L0,0C2.183,0 3.952,1.77 3.952,3.953L3.952,17.455C3.952,19.638 2.183,21.407 0,21.407" style="fill:rgb(119,121,123);fill-rule:nonzero;"/>
    </g>
    <g transform="matrix(1.97568,0,0,1.97568,781.669,114.538)">
        <path d="M0,21.407L4.332,21.407L4.332,0L0,0C-2.183,0 -3.952,1.77 -3.952,3.953L-3.952,17.455C-3.952,19.638 -2.183,21.407 0,21.407" style="fill:rgb(119,121,123);fill-rule:nonzero;"/>
    </g>
    <g transform="matrix(1.97568,0,0,1.97568,622.849,114.538)">
        <path d="M0,21.407L-3.977,21.407C-6.855,21.407 -9.187,19.074 -9.187,16.197L-9.187,5.211C-9.187,2.333 -6.855,0 -3.977,0L0,0C2.877,0 5.21,2.333 5.21,5.211L5.21,16.197C5.21,19.074 2.877,21.407 0,21.407" style="fill:rgb(119,121,123);fill-rule:nonzero;"/>
    </g>
    <g transform="matrix(1.97568,0,0,1.97568,655.752,114.538)">
        <path d="M0,21.407L-3.977,21.407C-6.855,21.407 -9.187,19.074 -9.187,16.197L-9.187,5.211C-9.187,2.333 -6.855,0 -3.977,0L0,0C2.877,0 5.21,2.333 5.21,5.211L5.21,16.197C5.21,19.074 2.877,21.407 0,21.407" style="fill:rgb(119,121,123);fill-rule:nonzero;"/>
    </g>
    <g transform="matrix(1.97568,0,0,1.97568,688.655,114.538)">
        <path d="M0,21.407L-3.977,21.407C-6.855,21.407 -9.187,19.074 -9.187,16.197L-9.187,5.211C-9.187,2.333 -6.855,0 -3.977,0L0,0C2.877,0 5.21,2.333 5.21,5.211L5.21,16.197C5.21,19.074 2.877,21.407 0,21.407" style="fill:rgb(119,121,123);fill-rule:nonzero;"/>
    </g>
    <g transform="matrix(1.97568,0,0,1.97568,721.558,114.538)">
        <path d="M0,21.407L-3.977,21.407C-6.855,21.407 -9.187,19.074 -9.187,16.197L-9.187,5.211C-9.187,2.333 -6.855,0 -3.977,0L0,0C2.877,0 5.21,2.333 5.21,5.211L5.21,16.197C5.21,19.074 2.877,21.407 0,21.407" style="fill:rgb(119,121,123);fill-rule:nonzero;"/>
    </g>
    <g transform="matrix(1.97568,0,0,1.97568,-91.1925,-410.609)">
        <g opacity="0.399994">
            <g transform="matrix(1,0,0,1,345.712,267.555)">
                <clipPath id="_clip5">
                    <rect x="-11.941" y="-0.5" width="15.653" height="39.768" clip-rule="nonzero"/>
                </clipPath>
                <g clip-path="url(#_clip5)">
                    <path d="M0,38.768L-8.23,38.768C-10.003,38.768 -11.441,37.33 -11.441,35.557L-11.441,3.212C-11.441,1.438 -10.003,0 -8.23,0L0,0C1.774,0 3.211,1.438 3.211,3.212L3.211,35.557C3.211,37.33 1.774,38.768 0,38.768Z" style="fill:none;stroke:rgb(119,121,123);stroke-width:0.51px;"/>
                </g>
            </g>
        </g>
    </g>
    <g transform="matrix(1.97568,0,0,1.97568,-91.1925,-410.609)">
        <g opacity="0.399994">
            <g transform="matrix(1,0,0,1,431.335,267.555)">
                <clipPath id="_clip6">
                    <rect x="-11.941" y="-0.5" width="15.653" height="39.768" clip-rule="nonzero"/>
                </clipPath>
                <g clip-path="url(#_clip6)">
                    <path d="M0,38.768L-8.23,38.768C-10.003,38.768 -11.441,37.33 -11.441,35.557L-11.441,3.212C-11.441,1.438 -10.003,0 -8.23,0L0,0C1.774,0 3.211,1.438 3.211,3.212L3.211,35.557C3.211,37.33 1.774,38.768 0,38.768Z" style="fill:none;stroke:rgb(119,121,123);stroke-width:0.51px;"/>
                </g>
            </g>
        </g>
    </g>
</svg>
