<?xml version="1.0" encoding="UTF-8" standalone="no"?>
<!DOCTYPE svg PUBLIC "-//W3C//DTD SVG 1.1//EN" "http://www.w3.org/Graphics/SVG/1.1/DTD/svg11.dtd">
<svg width="100%" height="100%" viewBox="0 0 800 300" version="1.1" xmlns="http://www.w3.org/2000/svg" xmlns:xlink="http://www.w3.org/1999/xlink" xml:space="preserve" xmlns:serif="http://www.serif.com/" style="fill-rule:evenodd;clip-rule:evenodd;stroke-miterlimit:10;">
    <g transform="matrix(1.95278,0,0,1.95278,808.938,212.835)">
        <path d="M0,3.665L-419.61,3.665C-420.622,3.665 -421.443,2.845 -421.443,1.833C-421.443,0.821 -420.622,0 -419.61,0L0,0C1.012,0 1.832,0.821 1.832,1.833C1.832,2.845 1.012,3.665 0,3.665" style="fill:rgb(136,186,196);fill-rule:nonzero;"/>
    </g>
    <g transform="matrix(-1.95278,0,0,1.95278,891.039,-650.065)">
        <rect x="245.46" y="392.17" width="10.928" height="43.843" style="fill:rgb(88,90,92);"/>
    </g>
    <g transform="matrix(-1.95278,0,0,1.95278,483.964,-581.895)">
        <rect x="52.272" y="391.387" width="188.845" height="10.5" style="fill:rgb(88,90,92);"/>
    </g>
    <g transform="matrix(1.95278,0,0,1.95278,371.636,208.67)">
        <path d="M0,-52.173L-121.737,-52.173L-172.248,-52.173C-175.232,-52.173 -177.915,-50.353 -179.017,-47.579L-187.363,-26.579L-187.363,-5.251C-187.363,-2.351 -185.012,0 -182.112,0L-181.785,0L-170.3,-11.485L-6.891,-11.485L4.594,0L10.172,0L10.172,-11.485L10.172,-26.579L10.172,-52.173L0,-52.173Z" style="fill:rgb(242,243,248);fill-rule:nonzero;"/>
    </g>
    <g transform="matrix(1.95278,0,0,1.95278,133.91,115.759)">
        <path d="M0,-4.594L-50.511,-4.594C-53.495,-4.594 -56.178,-2.774 -57.28,0L131.909,0L131.909,-4.594L121.737,-4.594L0,-4.594Z" style="fill:rgb(0,184,255);fill-rule:nonzero;"/>
    </g>
    <g transform="matrix(1.95278,0,0,1.95278,5.75604,208.67)">
        <path d="M0,-18.269L0,-5.251C0,-2.351 2.351,0 5.251,0L5.578,0L17.063,-11.484L180.472,-11.484L191.957,0L197.535,0L197.535,-11.484L197.535,-18.269L0,-18.269Z" style="fill:rgb(0,184,255);fill-rule:nonzero;"/>
    </g>
    <g transform="matrix(1.95278,0,0,1.95278,-88.9618,-617.044)">
        <rect x="48.504" y="404.57" width="197.535" height="2.133" style="fill:rgb(0,169,238);"/>
    </g>
    <g transform="matrix(1.95278,0,0,1.95278,144.236,146.42)">
        <path d="M0,-9.467L-4.998,-9.467C-6.426,-9.467 -7.585,-8.309 -7.585,-6.88L-7.585,-2.587C-7.585,-1.158 -6.426,0 -4.998,0L0,0C1.429,0 2.587,-1.158 2.587,-2.587L2.587,-6.88C2.587,-8.309 1.429,-9.467 0,-9.467" style="fill:rgb(119,121,123);fill-rule:nonzero;"/>
    </g>
    <g transform="matrix(1.95278,0,0,1.95278,171.789,146.42)">
        <path d="M0,-9.467L-4.998,-9.467C-6.426,-9.467 -7.585,-8.309 -7.585,-6.88L-7.585,-2.587C-7.585,-1.158 -6.426,0 -4.998,0L0,0C1.429,0 2.587,-1.158 2.587,-2.587L2.587,-6.88C2.587,-8.309 1.429,-9.467 0,-9.467" style="fill:rgb(119,121,123);fill-rule:nonzero;"/>
    </g>
    <g transform="matrix(1.95278,0,0,1.95278,116.683,146.42)">
        <path d="M0,-9.467L-4.998,-9.467C-6.426,-9.467 -7.585,-8.309 -7.585,-6.88L-7.585,-2.587C-7.585,-1.158 -6.426,0 -4.998,0L0,0C1.429,0 2.587,-1.158 2.587,-2.587L2.587,-6.88C2.587,-8.309 1.429,-9.467 0,-9.467" style="fill:rgb(119,121,123);fill-rule:nonzero;"/>
    </g>
    <g transform="matrix(1.95278,0,0,1.95278,199.342,146.42)">
        <path d="M0,-9.467L-4.998,-9.467C-6.426,-9.467 -7.585,-8.309 -7.585,-6.88L-7.585,-2.587C-7.585,-1.158 -6.426,0 -4.998,0L0,0C1.429,0 2.587,-1.158 2.587,-2.587L2.587,-6.88C2.587,-8.309 1.429,-9.467 0,-9.467" style="fill:rgb(119,121,123);fill-rule:nonzero;"/>
    </g>
    <g transform="matrix(1.95278,0,0,1.95278,89.13,146.42)">
        <path d="M0,-9.467L-4.998,-9.467C-6.426,-9.467 -7.585,-8.309 -7.585,-6.88L-7.585,-2.587C-7.585,-1.158 -6.426,0 -4.998,0L0,0C1.429,0 2.587,-1.158 2.587,-2.587L2.587,-6.88C2.587,-8.309 1.429,-9.467 0,-9.467" style="fill:rgb(119,121,123);fill-rule:nonzero;"/>
    </g>
    <g transform="matrix(1.95278,0,0,1.95278,51.8175,127.934)">
        <path d="M0,9.467L4.998,9.467C6.426,9.467 7.585,8.309 7.585,6.88L7.585,2.587C7.585,1.158 6.426,0 4.998,0L0,0C-1.429,0 -2.587,1.158 -2.587,2.587L-2.587,6.88C-2.587,8.309 -1.429,9.467 0,9.467" style="fill:rgb(119,121,123);fill-rule:nonzero;"/>
    </g>
    <g transform="matrix(1.95278,0,0,1.95278,337.108,146.42)">
        <path d="M0,-9.467L-4.998,-9.467C-6.426,-9.467 -7.585,-8.309 -7.585,-6.88L-7.585,-2.587C-7.585,-1.158 -6.426,0 -4.998,0L0,0C1.429,0 2.587,-1.158 2.587,-2.587L2.587,-6.88C2.587,-8.309 1.429,-9.467 0,-9.467" style="fill:rgb(119,121,123);fill-rule:nonzero;"/>
    </g>
    <g transform="matrix(1.95278,0,0,1.95278,309.555,146.42)">
        <path d="M0,-9.467L-4.998,-9.467C-6.426,-9.467 -7.585,-8.309 -7.585,-6.88L-7.585,-2.587C-7.585,-1.158 -6.426,0 -4.998,0L0,0C1.429,0 2.587,-1.158 2.587,-2.587L2.587,-6.88C2.587,-8.309 1.429,-9.467 0,-9.467" style="fill:rgb(119,121,123);fill-rule:nonzero;"/>
    </g>
    <g transform="matrix(1.95278,0,0,1.95278,33.9958,146.42)">
        <path d="M0,-9.467L-8.593,-9.467L-12.356,0L0,0C1.437,0 2.601,-1.164 2.601,-2.601L2.601,-6.866C2.601,-8.302 1.437,-9.467 0,-9.467" style="fill:rgb(119,121,123);fill-rule:nonzero;"/>
    </g>
    <g transform="matrix(1.95278,0,0,1.95278,282.002,146.42)">
        <path d="M0,-9.467L-4.998,-9.467C-6.426,-9.467 -7.585,-8.309 -7.585,-6.88L-7.585,-2.587C-7.585,-1.158 -6.426,0 -4.998,0L0,0C1.429,0 2.587,-1.158 2.587,-2.587L2.587,-6.88C2.587,-8.309 1.429,-9.467 0,-9.467" style="fill:rgb(119,121,123);fill-rule:nonzero;"/>
    </g>
    <g transform="matrix(1.95278,0,0,1.95278,254.449,146.42)">
        <path d="M0,-9.467L-4.998,-9.467C-6.426,-9.467 -7.585,-8.309 -7.585,-6.88L-7.585,-2.587C-7.585,-1.158 -6.426,0 -4.998,0L0,0C1.429,0 2.587,-1.158 2.587,-2.587L2.587,-6.88C2.587,-8.309 1.429,-9.467 0,-9.467" style="fill:rgb(119,121,123);fill-rule:nonzero;"/>
    </g>
    <g transform="matrix(1.95278,0,0,1.95278,226.895,146.42)">
        <path d="M0,-9.467L-4.998,-9.467C-6.426,-9.467 -7.585,-8.309 -7.585,-6.88L-7.585,-2.587C-7.585,-1.158 -6.426,0 -4.998,0L0,0C1.429,0 2.587,-1.158 2.587,-2.587L2.587,-6.88C2.587,-8.309 1.429,-9.467 0,-9.467" style="fill:rgb(119,121,123);fill-rule:nonzero;"/>
    </g>
    <g transform="matrix(1.95278,0,0,1.95278,86.4929,202.903)">
        <path d="M0,0C0,2.809 -2.277,5.086 -5.086,5.086C-7.895,5.086 -10.172,2.809 -10.172,0C-10.172,-2.809 -7.895,-5.086 -5.086,-5.086C-2.277,-5.086 0,-2.809 0,0" style="fill:rgb(119,121,123);fill-rule:nonzero;"/>
    </g>
    <g transform="matrix(1.95278,0,0,1.95278,114.046,202.903)">
        <path d="M0,0C0,2.809 -2.277,5.086 -5.086,5.086C-7.895,5.086 -10.172,2.809 -10.172,0C-10.172,-2.809 -7.895,-5.086 -5.086,-5.086C-2.277,-5.086 0,-2.809 0,0" style="fill:rgb(119,121,123);fill-rule:nonzero;"/>
    </g>
    <g transform="matrix(1.95278,0,0,1.95278,328.384,202.903)">
        <path d="M0,0C0,2.809 -2.277,5.086 -5.086,5.086C-7.895,5.086 -10.172,2.809 -10.172,0C-10.172,-2.809 -7.895,-5.086 -5.086,-5.086C-2.277,-5.086 0,-2.809 0,0" style="fill:rgb(119,121,123);fill-rule:nonzero;"/>
    </g>
    <g transform="matrix(1.95278,0,0,1.95278,355.937,202.903)">
        <path d="M0,0C0,2.809 -2.277,5.086 -5.086,5.086C-7.895,5.086 -10.172,2.809 -10.172,0C-10.172,-2.809 -7.895,-5.086 -5.086,-5.086C-2.277,-5.086 0,-2.809 0,0" style="fill:rgb(119,121,123);fill-rule:nonzero;"/>
    </g>
    <g transform="matrix(1.95278,0,0,1.95278,375.251,121.526)">
        <path d="M0,22.641L-8.624,22.641C-10.502,22.641 -12.023,21.119 -12.023,19.242L-12.023,3.399C-12.023,1.522 -10.502,0 -8.624,0L0,0C1.877,0 3.399,1.522 3.399,3.399L3.399,19.242C3.399,21.119 1.877,22.641 0,22.641Z" style="fill:none;stroke:rgb(189,190,192);stroke-width:0.51px;"/>
    </g>
    <g transform="matrix(1.95278,0,0,1.95278,-88.9618,-581.895)">
        <rect x="258.883" y="391.387" width="188.845" height="10.5" style="fill:rgb(88,90,92);"/>
    </g>
    <g transform="matrix(1.95278,0,0,1.95278,426.833,208.67)">
        <path d="M0,-52.173L172.248,-52.173C175.232,-52.173 177.915,-50.353 179.017,-47.579L187.363,-26.579L187.363,-5.251C187.363,-2.351 185.012,0 182.112,0L181.785,0L170.3,-11.485L121.737,-11.485L6.891,-11.485L-4.594,0L-10.172,0L-10.172,-11.485L-10.172,-26.579L-10.172,-52.173L0,-52.173Z" style="fill:rgb(242,243,248);fill-rule:nonzero;"/>
    </g>
    <g transform="matrix(-1.95278,0,0,1.95278,1286.39,-581.895)">
        <rect x="257.729" y="391.387" width="188.845" height="10.5" style="fill:rgb(88,90,92);"/>
    </g>
    <g transform="matrix(1.95278,0,0,1.95278,772.849,208.67)">
        <path d="M0,-52.173L-121.737,-52.173L-172.248,-52.173C-175.232,-52.173 -177.915,-50.353 -179.017,-47.579L-187.363,-26.579L-187.363,-5.251C-187.363,-2.351 -185.012,0 -182.112,0L-181.785,0L-170.3,-11.485L-6.891,-11.485L4.594,0L10.172,0L10.172,-11.485L10.172,-26.579L10.172,-52.173L0,-52.173Z" style="fill:rgb(242,243,248);fill-rule:nonzero;"/>
    </g>
    <g transform="matrix(1.95278,0,0,1.95278,535.123,115.759)">
        <path d="M0,-4.594L-50.511,-4.594C-53.495,-4.594 -56.178,-2.774 -57.28,0L131.909,0L131.909,-4.594L121.737,-4.594L0,-4.594Z" style="fill:rgb(0,184,255);fill-rule:nonzero;"/>
    </g>
    <g transform="matrix(1.95278,0,0,1.95278,406.969,208.67)">
        <path d="M0,-18.269L0,-5.251C0,-2.351 2.351,0 5.251,0L5.578,0L17.063,-11.484L180.472,-11.484L191.957,0L197.535,0L197.535,-11.484L197.535,-18.269L0,-18.269Z" style="fill:rgb(0,184,255);fill-rule:nonzero;"/>
    </g>
    <g transform="matrix(1.95278,0,0,1.95278,-88.9618,-617.044)">
        <rect x="253.961" y="404.57" width="197.535" height="2.133" style="fill:rgb(0,169,238);"/>
    </g>
    <g transform="matrix(1.95278,0,0,1.95278,729.597,202.903)">
        <path d="M0,0C0,2.809 -2.277,5.086 -5.086,5.086C-7.895,5.086 -10.172,2.809 -10.172,0C-10.172,-2.809 -7.895,-5.086 -5.086,-5.086C-2.277,-5.086 0,-2.809 0,0" style="fill:rgb(119,121,123);fill-rule:nonzero;"/>
    </g>
    <g transform="matrix(1.95278,0,0,1.95278,757.15,202.903)">
        <path d="M0,0C0,2.809 -2.277,5.086 -5.086,5.086C-7.895,5.086 -10.172,2.809 -10.172,0C-10.172,-2.809 -7.895,-5.086 -5.086,-5.086C-2.277,-5.086 0,-2.809 0,0" style="fill:rgb(119,121,123);fill-rule:nonzero;"/>
    </g>
    <g transform="matrix(1.95278,0,0,1.95278,776.464,121.526)">
        <path d="M0,22.641L-8.624,22.641C-10.502,22.641 -12.023,21.119 -12.023,19.242L-12.023,3.399C-12.023,1.522 -10.502,0 -8.624,0L0,0C1.877,0 3.399,1.522 3.399,3.399L3.399,19.242C3.399,21.119 1.877,22.641 0,22.641Z" style="fill:none;stroke:rgb(189,190,192);stroke-width:0.51px;"/>
    </g>
    <g transform="matrix(1.95278,0,0,1.95278,664.559,115.759)">
        <path d="M0,-4.594L50.511,-4.594C53.495,-4.594 56.178,-2.774 57.28,0L-131.909,0L-131.909,-4.594L0,-4.594Z" style="fill:rgb(0,184,255);fill-rule:nonzero;"/>
    </g>
    <g transform="matrix(1.95278,0,0,1.95278,792.713,208.67)">
        <path d="M0,-18.269L0,-5.251C0,-2.351 -2.351,0 -5.251,0L-5.578,0L-17.063,-11.484L-65.626,-11.484L-180.472,-11.484L-191.957,0L-197.535,0L-197.535,-11.484L-197.535,-18.269L0,-18.269Z" style="fill:rgb(0,184,255);fill-rule:nonzero;"/>
    </g>
    <g transform="matrix(-1.95278,0,0,1.95278,1288.64,-617.044)">
        <rect x="253.961" y="404.57" width="197.535" height="2.133" style="fill:rgb(0,169,238);"/>
    </g>
    <g transform="matrix(1.95278,0,0,1.95278,601.85,146.42)">
        <path d="M0,-9.467L4.998,-9.467C6.426,-9.467 7.585,-8.309 7.585,-6.88L7.585,-2.587C7.585,-1.158 6.426,0 4.998,0L0,0C-1.429,0 -2.587,-1.158 -2.587,-2.587L-2.587,-6.88C-2.587,-8.309 -1.429,-9.467 0,-9.467" style="fill:rgb(119,121,123);fill-rule:nonzero;"/>
    </g>
    <g transform="matrix(1.95278,0,0,1.95278,464.084,146.42)">
        <path d="M0,-9.467L4.998,-9.467C6.426,-9.467 7.585,-8.309 7.585,-6.88L7.585,-2.587C7.585,-1.158 6.426,0 4.998,0L0,0C-1.429,0 -2.587,-1.158 -2.587,-2.587L-2.587,-6.88C-2.587,-8.309 -1.429,-9.467 0,-9.467" style="fill:rgb(119,121,123);fill-rule:nonzero;"/>
    </g>
    <g transform="matrix(1.95278,0,0,1.95278,491.637,146.42)">
        <path d="M0,-9.467L4.998,-9.467C6.426,-9.467 7.585,-8.309 7.585,-6.88L7.585,-2.587C7.585,-1.158 6.426,0 4.998,0L0,0C-1.429,0 -2.587,-1.158 -2.587,-2.587L-2.587,-6.88C-2.587,-8.309 -1.429,-9.467 0,-9.467" style="fill:rgb(119,121,123);fill-rule:nonzero;"/>
    </g>
    <g transform="matrix(1.95278,0,0,1.95278,519.19,146.42)">
        <path d="M0,-9.467L4.998,-9.467C6.426,-9.467 7.585,-8.309 7.585,-6.88L7.585,-2.587C7.585,-1.158 6.426,0 4.998,0L0,0C-1.429,0 -2.587,-1.158 -2.587,-2.587L-2.587,-6.88C-2.587,-8.309 -1.429,-9.467 0,-9.467" style="fill:rgb(119,121,123);fill-rule:nonzero;"/>
    </g>
    <g transform="matrix(1.95278,0,0,1.95278,546.743,146.42)">
        <path d="M0,-9.467L4.998,-9.467C6.427,-9.467 7.585,-8.309 7.585,-6.88L7.585,-2.587C7.585,-1.158 6.427,0 4.998,0L0,0C-1.429,0 -2.587,-1.158 -2.587,-2.587L-2.587,-6.88C-2.587,-8.309 -1.429,-9.467 0,-9.467" style="fill:rgb(119,121,123);fill-rule:nonzero;"/>
    </g>
    <g transform="matrix(1.95278,0,0,1.95278,574.296,146.42)">
        <path d="M0,-9.467L4.998,-9.467C6.427,-9.467 7.585,-8.309 7.585,-6.88L7.585,-2.587C7.585,-1.158 6.427,0 4.998,0L0,0C-1.429,0 -2.587,-1.158 -2.587,-2.587L-2.587,-6.88C-2.587,-8.309 -1.429,-9.467 0,-9.467" style="fill:rgb(119,121,123);fill-rule:nonzero;"/>
    </g>
    <g transform="matrix(1.95278,0,0,1.95278,634.849,146.42)">
        <path d="M0,-9.467L4.998,-9.467C6.426,-9.467 7.585,-8.309 7.585,-6.88L7.585,-2.587C7.585,-1.158 6.426,0 4.998,0L0,0C-1.429,0 -2.587,-1.158 -2.587,-2.587L-2.587,-6.88C-2.587,-8.309 -1.429,-9.467 0,-9.467" style="fill:rgb(119,121,123);fill-rule:nonzero;"/>
    </g>
    <g transform="matrix(1.95278,0,0,1.95278,662.402,146.42)">
        <path d="M0,-9.467L4.998,-9.467C6.426,-9.467 7.585,-8.309 7.585,-6.88L7.585,-2.587C7.585,-1.158 6.426,0 4.998,0L0,0C-1.429,0 -2.587,-1.158 -2.587,-2.587L-2.587,-6.88C-2.587,-8.309 -1.429,-9.467 0,-9.467" style="fill:rgb(119,121,123);fill-rule:nonzero;"/>
    </g>
    <g transform="matrix(1.95278,0,0,1.95278,689.956,146.42)">
        <path d="M0,-9.467L4.998,-9.467C6.426,-9.467 7.585,-8.309 7.585,-6.88L7.585,-2.587C7.585,-1.158 6.426,0 4.998,0L0,0C-1.429,0 -2.587,-1.158 -2.587,-2.587L-2.587,-6.88C-2.587,-8.309 -1.429,-9.467 0,-9.467" style="fill:rgb(119,121,123);fill-rule:nonzero;"/>
    </g>
    <g transform="matrix(1.95278,0,0,1.95278,717.509,146.42)">
        <path d="M0,-9.467L4.998,-9.467C6.427,-9.467 7.585,-8.309 7.585,-6.88L7.585,-2.587C7.585,-1.158 6.427,0 4.998,0L0,0C-1.429,0 -2.587,-1.158 -2.587,-2.587L-2.587,-6.88C-2.587,-8.309 -1.429,-9.467 0,-9.467" style="fill:rgb(119,121,123);fill-rule:nonzero;"/>
    </g>
    <g transform="matrix(1.95278,0,0,1.95278,470.085,202.903)">
        <path d="M0,0C0,2.809 2.277,5.086 5.086,5.086C7.895,5.086 10.172,2.809 10.172,0C10.172,-2.809 7.895,-5.086 5.086,-5.086C2.277,-5.086 0,-2.809 0,0" style="fill:rgb(119,121,123);fill-rule:nonzero;"/>
    </g>
    <g transform="matrix(1.95278,0,0,1.95278,442.532,202.903)">
        <path d="M0,0C0,2.809 2.277,5.086 5.086,5.086C7.895,5.086 10.172,2.809 10.172,0C10.172,-2.809 7.895,-5.086 5.086,-5.086C2.277,-5.086 0,-2.809 0,0" style="fill:rgb(119,121,123);fill-rule:nonzero;"/>
    </g>
    <g transform="matrix(1.95278,0,0,1.95278,423.218,121.526)">
        <path d="M0,22.641L8.624,22.641C10.502,22.641 12.023,21.119 12.023,19.242L12.023,3.399C12.023,1.522 10.502,0 8.624,0L0,0C-1.877,0 -3.399,1.522 -3.399,3.399L-3.399,19.242C-3.399,21.119 -1.877,22.641 0,22.641Z" style="fill:none;stroke:rgb(189,190,192);stroke-width:0.51px;"/>
    </g>
</svg>
