<?xml version="1.0" encoding="UTF-8" standalone="no"?>
<!DOCTYPE svg PUBLIC "-//W3C//DTD SVG 1.1//EN" "http://www.w3.org/Graphics/SVG/1.1/DTD/svg11.dtd">
<svg width="100%" height="100%" viewBox="0 0 800 304" version="1.1" xmlns="http://www.w3.org/2000/svg" xmlns:xlink="http://www.w3.org/1999/xlink" xml:space="preserve" xmlns:serif="http://www.serif.com/" style="fill-rule:evenodd;clip-rule:evenodd;stroke-linejoin:round;stroke-miterlimit:1.41421;">
    <g transform="matrix(2,0,0,2.03691,-141.499,-306.847)">
        <g transform="matrix(0.896238,0,0,1.03278,68.7083,-6.17801)">
            <rect x="0" y="150" width="450" height="150" style="fill:rgb(204,236,251);fill-rule:nonzero;"/>
        </g>
        <g transform="matrix(1,0,0,1,-75.8763,0.865175)">
            <path d="M252.646,239.5C240.718,239.5 231.049,229.83 231.049,217.901C231.049,205.973 240.718,196.304 252.646,196.304C264.574,196.304 274.244,205.973 274.244,217.901C274.244,229.83 264.574,239.5 252.646,239.5ZM288.394,222.389L288.394,213.414L279.733,211.147C279.057,208.425 277.985,205.866 276.576,203.525L281.097,195.798L274.75,189.451L267.022,193.972C264.682,192.563 262.122,191.491 259.401,190.814L257.134,182.154L248.158,182.154L245.892,190.814C243.17,191.491 240.611,192.563 238.27,193.972L230.543,189.451L224.196,195.798L228.717,203.525C227.308,205.866 226.236,208.425 225.559,211.147L216.899,213.414L216.899,222.389L225.559,224.656C226.236,227.378 227.308,229.938 228.717,232.278L224.196,240.005L230.543,246.352L238.27,241.831C240.611,243.24 243.17,244.313 245.892,244.989L248.158,253.648L257.134,253.648L259.401,244.989C262.122,244.312 264.682,243.24 267.022,241.831L274.75,246.352L281.097,240.005L276.576,232.278C277.985,229.938 279.057,227.378 279.733,224.656L288.394,222.389Z" style="fill:rgb(131,192,213);fill-opacity:0.717647;fill-rule:nonzero;"/>
        </g>
        <g transform="matrix(1,0,0,1,-75.8763,0.865175)">
            <path d="M264.81,217.901C264.81,224.619 259.364,230.064 252.646,230.064C245.929,230.064 240.483,224.619 240.483,217.901C240.483,211.184 245.929,205.738 252.646,205.738C259.364,205.738 264.81,211.184 264.81,217.901Z" style="fill:rgb(131,192,213);fill-opacity:0.717647;fill-rule:nonzero;"/>
        </g>
        <g transform="matrix(1,0,0,1,-75.8763,0.865175)">
            <path d="M190.786,272.628C186.426,272.628 182.892,269.094 182.892,264.734C182.892,260.375 186.426,256.841 190.786,256.841C195.146,256.841 198.68,260.375 198.68,264.734C198.68,269.094 195.146,272.628 190.786,272.628ZM203.851,266.375L203.851,263.095L200.686,262.266C200.438,261.271 200.047,260.336 199.532,259.481L201.184,256.656L198.865,254.336L196.041,255.988C195.185,255.474 194.25,255.082 193.255,254.835L192.426,251.67L189.146,251.67L188.317,254.835C187.322,255.082 186.387,255.474 185.532,255.988L182.708,254.336L180.388,256.656L182.04,259.481C181.525,260.336 181.133,261.271 180.886,262.266L177.721,263.095L177.721,266.375L180.886,267.203C181.133,268.198 181.525,269.133 182.04,269.989L180.388,272.813L182.708,275.133L185.532,273.48C186.387,273.995 187.322,274.387 188.317,274.635L189.146,277.8L192.426,277.8L193.255,274.635C194.25,274.387 195.185,273.995 196.041,273.48L198.865,275.133L201.184,272.813L199.532,269.989C200.047,269.133 200.438,268.198 200.686,267.203L203.851,266.375Z" style="fill:rgb(131,192,213);fill-opacity:0.717647;fill-rule:nonzero;"/>
        </g>
        <g transform="matrix(1,0,0,1,-75.8763,0.865175)">
            <path d="M195.231,264.734C195.231,267.189 193.241,269.18 190.786,269.18C188.331,269.18 186.34,267.189 186.34,264.734C186.34,262.279 188.331,260.289 190.786,260.289C193.241,260.289 195.231,262.279 195.231,264.734Z" style="fill:rgb(131,192,213);fill-opacity:0.717647;fill-rule:nonzero;"/>
        </g>
        <g transform="matrix(1,0,0,1,-75.8763,0.865175)">
            <path d="M209.56,282.746C206.24,282.746 203.549,280.055 203.549,276.735C203.549,273.416 206.24,270.725 209.56,270.725C212.879,270.725 215.57,273.416 215.57,276.735C215.57,280.055 212.879,282.746 209.56,282.746ZM219.508,277.984L219.508,275.486L217.098,274.855C216.91,274.098 216.612,273.386 216.219,272.734L217.478,270.584L215.711,268.817L213.561,270.076C212.909,269.684 212.197,269.386 211.439,269.197L210.809,266.787L208.311,266.787L207.68,269.197C206.922,269.385 206.21,269.684 205.559,270.076L203.409,268.817L201.642,270.584L202.9,272.734C202.508,273.386 202.21,274.098 202.021,274.855L199.612,275.486L199.612,277.984L202.021,278.615C202.21,279.372 202.508,280.085 202.9,280.736L201.642,282.887L203.409,284.652L205.559,283.395C206.21,283.787 206.922,284.085 207.68,284.273L208.311,286.684L210.809,286.684L211.439,284.273C212.197,284.085 212.909,283.787 213.561,283.395L215.711,284.652L217.478,282.887L216.219,280.736C216.612,280.085 216.91,279.372 217.098,278.615L219.508,277.984Z" style="fill:rgb(131,192,213);fill-opacity:0.717647;fill-rule:nonzero;"/>
        </g>
        <g transform="matrix(1,0,0,1,-75.8763,0.865175)">
            <path d="M212.945,276.735C212.945,278.604 211.429,280.12 209.56,280.12C207.69,280.12 206.175,278.604 206.175,276.735C206.175,274.865 207.69,273.351 209.56,273.351C211.429,273.351 212.945,274.865 212.945,276.735Z" style="fill:rgb(131,192,213);fill-opacity:0.717647;fill-rule:nonzero;"/>
        </g>
        <g transform="matrix(1,0,0,1,-75.8763,0.865175)">
            <path d="M278.538,187.133C275.219,187.133 272.527,184.442 272.527,181.123C272.527,177.803 275.219,175.112 278.538,175.112C281.857,175.112 284.549,177.803 284.549,181.123C284.549,184.442 281.857,187.133 278.538,187.133ZM288.486,182.372L288.486,179.874L286.076,179.243C285.888,178.485 285.59,177.773 285.197,177.122L286.455,174.971L284.689,173.205L282.539,174.463C281.888,174.071 281.175,173.772 280.418,173.584L279.787,171.174L277.289,171.174L276.658,173.584C275.9,173.772 275.188,174.071 274.537,174.463L272.387,173.205L270.62,174.971L271.879,177.122C271.486,177.773 271.188,178.485 271,179.243L268.59,179.874L268.59,182.372L271,183.002C271.188,183.76 271.486,184.472 271.879,185.124L270.62,187.274L272.387,189.04L274.537,187.782C275.188,188.174 275.9,188.472 276.658,188.661L277.289,191.071L279.787,191.071L280.418,188.661C281.175,188.472 281.888,188.174 282.539,187.782L284.689,189.04L286.455,187.274L285.197,185.124C285.59,184.472 285.888,183.76 286.076,183.002L288.486,182.372Z" style="fill:rgb(131,192,213);fill-opacity:0.717647;fill-rule:nonzero;"/>
        </g>
        <g transform="matrix(1,0,0,1,-75.8763,0.865175)">
            <path d="M281.923,181.123C281.923,182.992 280.407,184.507 278.538,184.507C276.668,184.507 275.153,182.992 275.153,181.123C275.153,179.253 276.668,177.737 278.538,177.737C280.407,177.737 281.923,179.253 281.923,181.123Z" style="fill:rgb(131,192,213);fill-opacity:0.717647;fill-rule:nonzero;"/>
        </g>
        <g transform="matrix(3.93857,0,0,3.93857,-768.341,-501.313)">
            <path d="M278.538,187.133C275.219,187.133 272.527,184.442 272.527,181.123C272.527,177.803 275.219,175.112 278.538,175.112C281.857,175.112 284.549,177.803 284.549,181.123C284.549,184.442 281.857,187.133 278.538,187.133ZM288.486,182.372L288.486,179.874L286.076,179.243C285.888,178.485 285.59,177.773 285.197,177.122L286.455,174.971L284.689,173.205L282.539,174.463C281.888,174.071 281.175,173.772 280.418,173.584L279.787,171.174L277.289,171.174L276.658,173.584C275.9,173.772 275.188,174.071 274.537,174.463L272.387,173.205L270.62,174.971L271.879,177.122C271.486,177.773 271.188,178.485 271,179.243L268.59,179.874L268.59,182.372L271,183.002C271.188,183.76 271.486,184.472 271.879,185.124L270.62,187.274L272.387,189.04L274.537,187.782C275.188,188.174 275.9,188.472 276.658,188.661L277.289,191.071L279.787,191.071L280.418,188.661C281.175,188.472 281.888,188.174 282.539,187.782L284.689,189.04L286.455,187.274L285.197,185.124C285.59,184.472 285.888,183.76 286.076,183.002L288.486,182.372Z" style="fill:rgb(131,192,213);fill-opacity:0.717647;fill-rule:nonzero;"/>
        </g>
        <g transform="matrix(3.93857,0,0,3.93857,-768.341,-501.313)">
            <path d="M281.923,181.123C281.923,182.992 280.407,184.507 278.538,184.507C276.668,184.507 275.153,182.992 275.153,181.123C275.153,179.253 276.668,177.737 278.538,177.737C280.407,177.737 281.923,179.253 281.923,181.123Z" style="fill:rgb(131,192,213);fill-opacity:0.717647;fill-rule:nonzero;"/>
        </g>
        <g transform="matrix(1,0,0,1,14.6707,0)">
            <path d="M429.894,175.328C426.574,175.328 423.884,172.637 423.884,169.317C423.884,165.998 426.574,163.307 429.894,163.307C433.214,163.307 435.904,165.998 435.904,169.317C435.904,172.637 433.214,175.328 429.894,175.328ZM439.842,170.566L439.842,168.068L437.433,167.438C437.244,166.68 436.945,165.968 436.554,165.316L437.812,163.166L436.045,161.4L433.895,162.658C433.243,162.266 432.531,161.967 431.773,161.779L431.143,159.369L428.646,159.369L428.015,161.779C427.257,161.967 426.545,162.266 425.894,162.658L423.742,161.4L421.977,163.166L423.234,165.316C422.842,165.968 422.544,166.68 422.355,167.438L419.945,168.068L419.945,170.566L422.355,171.197C422.544,171.955 422.842,172.667 423.234,173.318L421.977,175.469L423.742,177.235L425.894,175.977C426.545,176.369 427.257,176.667 428.015,176.855L428.646,179.266L431.143,179.266L431.773,176.855C432.531,176.667 433.243,176.369 433.895,175.977L436.045,177.235L437.812,175.469L436.554,173.318C436.945,172.667 437.244,171.955 437.433,171.197L439.842,170.566Z" style="fill:rgb(131,192,213);fill-opacity:0.717647;fill-rule:nonzero;"/>
        </g>
        <g transform="matrix(1,0,0,1,14.6707,0)">
            <path d="M433.279,169.317C433.279,171.187 431.764,172.702 429.894,172.702C428.024,172.702 426.509,171.187 426.509,169.317C426.509,167.448 428.024,165.933 429.894,165.933C431.764,165.933 433.279,167.448 433.279,169.317Z" style="fill:rgb(131,192,213);fill-opacity:0.717647;fill-rule:nonzero;"/>
        </g>
        <g transform="matrix(1,0,0,1,14.6707,0)">
            <path d="M429.709,287.248C426.39,287.248 423.698,284.557 423.698,281.237C423.698,277.917 426.39,275.227 429.709,275.227C433.028,275.227 435.72,277.917 435.72,281.237C435.72,284.557 433.028,287.248 429.709,287.248ZM439.657,282.486L439.657,279.988L437.247,279.357C437.059,278.6 436.761,277.888 436.368,277.236L437.627,275.086L435.86,273.319L433.71,274.577C433.059,274.186 432.347,273.887 431.589,273.698L430.958,271.289L428.46,271.289L427.829,273.698C427.071,273.887 426.359,274.186 425.708,274.577L423.558,273.319L421.791,275.086L423.05,277.236C422.657,277.888 422.359,278.6 422.171,279.357L419.761,279.988L419.761,282.486L422.171,283.117C422.359,283.874 422.657,284.586 423.05,285.238L421.791,287.389L423.558,289.154L425.708,287.896C426.359,288.289 427.071,288.587 427.829,288.775L428.46,291.186L430.958,291.186L431.589,288.775C432.347,288.587 433.059,288.289 433.71,287.896L435.86,289.154L437.627,287.389L436.368,285.238C436.761,284.586 437.059,283.874 437.247,283.117L439.657,282.486Z" style="fill:rgb(131,192,213);fill-opacity:0.717647;fill-rule:nonzero;"/>
        </g>
        <g transform="matrix(1,0,0,1,14.6707,0)">
            <path d="M433.094,281.237C433.094,283.106 431.578,284.622 429.709,284.622C427.84,284.622 426.324,283.106 426.324,281.237C426.324,279.367 427.84,277.852 429.709,277.852C431.578,277.852 433.094,279.367 433.094,281.237Z" style="fill:rgb(131,192,213);fill-opacity:0.717647;fill-rule:nonzero;"/>
        </g>
        <g transform="matrix(1,0,0,1,-75.8763,0.865175)">
            <path d="M176.898,289.126C173.579,289.126 170.888,286.435 170.888,283.115C170.888,279.796 173.579,277.104 176.898,277.104C180.218,277.104 182.909,279.796 182.909,283.115C182.909,286.435 180.218,289.126 176.898,289.126ZM186.847,284.364L186.847,281.866L184.437,281.235C184.249,280.478 183.95,279.766 183.558,279.114L184.816,276.964L183.05,275.197L180.899,276.456C180.248,276.063 179.536,275.766 178.778,275.577L178.147,273.167L175.65,273.167L175.019,275.577C174.261,275.765 173.549,276.063 172.898,276.456L170.747,275.197L168.981,276.964L170.239,279.114C169.847,279.766 169.549,280.478 169.36,281.235L166.95,281.866L166.95,284.364L169.36,284.995C169.549,285.752 169.847,286.465 170.239,287.116L168.981,289.267L170.747,291.032L172.898,289.774C173.549,290.167 174.261,290.465 175.019,290.653L175.65,293.063L178.147,293.063L178.778,290.653C179.536,290.465 180.248,290.167 180.899,289.774L183.05,291.032L184.816,289.267L183.558,287.116C183.95,286.465 184.249,285.752 184.437,284.995L186.847,284.364Z" style="fill:rgb(131,192,213);fill-opacity:0.717647;fill-rule:nonzero;"/>
        </g>
        <g transform="matrix(1,0,0,1,-75.8763,0.865175)">
            <path d="M180.284,283.115C180.284,284.984 178.768,286.5 176.899,286.5C175.029,286.5 173.514,284.984 173.514,283.115C173.514,281.246 175.029,279.73 176.899,279.73C178.768,279.73 180.284,281.246 180.284,283.115Z" style="fill:rgb(131,192,213);fill-opacity:0.717647;fill-rule:nonzero;"/>
        </g>
        <g transform="matrix(1,0,0,1,-75.8763,0.865175)">
            <path d="M241.31,286.975C233.659,286.975 227.458,280.772 227.458,273.123C227.458,265.474 233.659,259.271 241.31,259.271C248.959,259.271 255.16,265.474 255.16,273.123C255.16,280.772 248.959,286.975 241.31,286.975ZM263.778,275.944L263.778,270.303L258.334,268.878C257.909,267.167 257.236,265.559 256.35,264.087L259.191,259.231L255.202,255.241L250.346,258.082C248.874,257.197 247.266,256.524 245.555,256.098L244.13,250.654L238.488,250.654L237.063,256.098C235.353,256.524 233.744,257.197 232.273,258.082L227.416,255.241L223.427,259.231L226.269,264.087C225.383,265.559 224.709,267.167 224.284,268.878L218.841,270.303L218.841,275.944L224.284,277.369C224.709,279.08 225.383,280.688 226.269,282.159L223.427,287.017L227.416,291.005L232.273,288.164C233.744,289.05 235.353,289.723 237.063,290.148L238.488,295.592L244.13,295.592L245.555,290.148C247.266,289.723 248.874,289.05 250.346,288.164L255.202,291.005L259.191,287.017L256.35,282.159C257.236,280.688 257.909,279.08 258.334,277.369L263.778,275.944Z" style="fill:rgb(131,192,213);fill-opacity:0.717647;fill-rule:nonzero;"/>
        </g>
        <g transform="matrix(1,0,0,1,-75.8763,0.865175)">
            <path d="M241.31,278.929C238.104,278.929 235.504,276.329 235.504,273.123C235.504,269.917 238.104,267.317 241.31,267.317C244.516,267.317 247.115,269.917 247.115,273.123C247.115,276.329 244.516,278.929 241.31,278.929ZM241.31,260.625C234.406,260.625 228.811,266.221 228.811,273.123C228.811,280.025 234.406,285.621 241.31,285.621C248.212,285.621 253.808,280.025 253.808,273.123C253.808,266.221 248.212,260.625 241.31,260.625Z" style="fill:rgb(131,192,213);fill-opacity:0.717647;fill-rule:nonzero;"/>
        </g>
        <g transform="matrix(1.14506,0,0,1.14506,16.1798,-47.2243)">
            <path d="M241.31,286.975C233.659,286.975 227.458,280.772 227.458,273.123C227.458,265.474 233.659,259.271 241.31,259.271C248.959,259.271 255.16,265.474 255.16,273.123C255.16,280.772 248.959,286.975 241.31,286.975ZM263.778,275.944L263.778,270.303L258.334,268.878C257.909,267.167 257.236,265.559 256.35,264.087L259.191,259.231L255.202,255.241L250.346,258.082C248.874,257.197 247.266,256.524 245.555,256.098L244.13,250.654L238.488,250.654L237.063,256.098C235.353,256.524 233.744,257.197 232.273,258.082L227.416,255.241L223.427,259.231L226.269,264.087C225.383,265.559 224.709,267.167 224.284,268.878L218.841,270.303L218.841,275.944L224.284,277.369C224.709,279.08 225.383,280.688 226.269,282.159L223.427,287.017L227.416,291.005L232.273,288.164C233.744,289.05 235.353,289.723 237.063,290.148L238.488,295.592L244.13,295.592L245.555,290.148C247.266,289.723 248.874,289.05 250.346,288.164L255.202,291.005L259.191,287.017L256.35,282.159C257.236,280.688 257.909,279.08 258.334,277.369L263.778,275.944Z" style="fill:rgb(131,192,213);fill-opacity:0.717647;fill-rule:nonzero;"/>
        </g>
        <g transform="matrix(1.14506,0,0,1.14506,16.1798,-47.2243)">
            <path d="M241.31,278.929C238.104,278.929 235.504,276.329 235.504,273.123C235.504,269.917 238.104,267.317 241.31,267.317C244.516,267.317 247.115,269.917 247.115,273.123C247.115,276.329 244.516,278.929 241.31,278.929ZM241.31,260.625C234.406,260.625 228.811,266.221 228.811,273.123C228.811,280.025 234.406,285.621 241.31,285.621C248.212,285.621 253.808,280.025 253.808,273.123C253.808,266.221 248.212,260.625 241.31,260.625Z" style="fill:rgb(131,192,213);fill-opacity:0.717647;fill-rule:nonzero;"/>
        </g>
        <g transform="matrix(-2.65803,0,0,2.65803,1131.72,-282.686)">
            <path d="M278.538,187.133C275.219,187.133 272.527,184.442 272.527,181.123C272.527,177.803 275.219,175.112 278.538,175.112C281.857,175.112 284.549,177.803 284.549,181.123C284.549,184.442 281.857,187.133 278.538,187.133ZM288.486,182.372L288.486,179.874L286.076,179.243C285.888,178.485 285.59,177.773 285.197,177.122L286.455,174.971L284.689,173.205L282.539,174.463C281.888,174.071 281.175,173.772 280.418,173.584L279.787,171.174L277.289,171.174L276.658,173.584C275.9,173.772 275.188,174.071 274.537,174.463L272.387,173.205L270.62,174.971L271.879,177.122C271.486,177.773 271.188,178.485 271,179.243L268.59,179.874L268.59,182.372L271,183.002C271.188,183.76 271.486,184.472 271.879,185.124L270.62,187.274L272.387,189.04L274.537,187.782C275.188,188.174 275.9,188.472 276.658,188.661L277.289,191.071L279.787,191.071L280.418,188.661C281.175,188.472 281.888,188.174 282.539,187.782L284.689,189.04L286.455,187.274L285.197,185.124C285.59,184.472 285.888,183.76 286.076,183.002L288.486,182.372Z" style="fill:rgb(131,192,213);fill-opacity:0.717647;fill-rule:nonzero;"/>
        </g>
        <g transform="matrix(-2.65803,0,0,2.65803,1131.72,-282.686)">
            <path d="M281.923,181.123C281.923,182.992 280.407,184.507 278.538,184.507C276.668,184.507 275.153,182.992 275.153,181.123C275.153,179.253 276.668,177.737 278.538,177.737C280.407,177.737 281.923,179.253 281.923,181.123Z" style="fill:rgb(131,192,213);fill-opacity:0.717647;fill-rule:nonzero;"/>
        </g>
        <g transform="matrix(-1,0,0,1,655.608,0.865175)">
            <path d="M241.31,286.975C233.659,286.975 227.458,280.772 227.458,273.123C227.458,265.474 233.659,259.271 241.31,259.271C248.959,259.271 255.16,265.474 255.16,273.123C255.16,280.772 248.959,286.975 241.31,286.975ZM263.778,275.944L263.778,270.303L258.334,268.878C257.909,267.167 257.236,265.559 256.35,264.087L259.191,259.231L255.202,255.241L250.346,258.082C248.874,257.197 247.266,256.524 245.555,256.098L244.13,250.654L238.488,250.654L237.063,256.098C235.353,256.524 233.744,257.197 232.273,258.082L227.416,255.241L223.427,259.231L226.269,264.087C225.383,265.559 224.709,267.167 224.284,268.878L218.841,270.303L218.841,275.944L224.284,277.369C224.709,279.08 225.383,280.688 226.269,282.159L223.427,287.017L227.416,291.005L232.273,288.164C233.744,289.05 235.353,289.723 237.063,290.148L238.488,295.592L244.13,295.592L245.555,290.148C247.266,289.723 248.874,289.05 250.346,288.164L255.202,291.005L259.191,287.017L256.35,282.159C257.236,280.688 257.909,279.08 258.334,277.369L263.778,275.944Z" style="fill:rgb(131,192,213);fill-opacity:0.717647;fill-rule:nonzero;"/>
        </g>
        <g transform="matrix(-1,0,0,1,655.608,0.865175)">
            <path d="M241.31,278.929C238.104,278.929 235.504,276.329 235.504,273.123C235.504,269.917 238.104,267.317 241.31,267.317C244.516,267.317 247.115,269.917 247.115,273.123C247.115,276.329 244.516,278.929 241.31,278.929ZM241.31,260.625C234.406,260.625 228.811,266.221 228.811,273.123C228.811,280.025 234.406,285.621 241.31,285.621C248.212,285.621 253.808,280.025 253.808,273.123C253.808,266.221 248.212,260.625 241.31,260.625Z" style="fill:rgb(131,192,213);fill-opacity:0.717647;fill-rule:nonzero;"/>
        </g>
        <g transform="matrix(1,0,0,1,14.6707,0)">
            <path d="M439.175,271.417C436.621,271.417 434.551,269.347 434.551,266.792C434.551,264.238 436.621,262.168 439.175,262.168C441.729,262.168 443.799,264.238 443.799,266.792C443.799,269.347 441.729,271.417 439.175,271.417ZM446.676,267.734L446.676,265.851L444.859,265.375C444.717,264.804 444.492,264.267 444.196,263.775L445.145,262.154L443.813,260.822L442.191,261.771C441.7,261.475 441.163,261.25 440.592,261.108L440.116,259.291L438.233,259.291L437.758,261.108C437.187,261.25 436.649,261.475 436.158,261.771L434.536,260.822L433.205,262.154L434.153,263.775C433.857,264.267 433.633,264.804 433.491,265.375L431.674,265.851L431.674,267.734L433.491,268.21C433.633,268.781 433.857,269.318 434.153,269.809L433.205,271.431L434.536,272.763L436.158,271.813C436.649,272.109 437.187,272.334 437.758,272.477L438.233,274.294L440.116,274.294L440.592,272.477C441.163,272.334 441.7,272.109 442.191,271.813L443.813,272.763L445.145,271.431L444.196,269.809C444.492,269.318 444.717,268.781 444.859,268.21L446.676,267.734Z" style="fill:rgb(131,192,213);fill-opacity:0.717647;fill-rule:nonzero;"/>
        </g>
        <g transform="matrix(1,0,0,1,14.6707,0)">
            <path d="M439.175,268.73C438.104,268.73 437.236,267.862 437.236,266.792C437.236,265.722 438.104,264.854 439.175,264.854C440.245,264.854 441.113,265.722 441.113,266.792C441.113,267.862 440.245,268.73 439.175,268.73ZM439.175,262.619C436.87,262.619 435.002,264.488 435.002,266.792C435.002,269.097 436.87,270.965 439.175,270.965C441.479,270.965 443.348,269.097 443.348,266.792C443.348,264.488 441.479,262.619 439.175,262.619Z" style="fill:rgb(131,192,213);fill-opacity:0.717647;fill-rule:nonzero;"/>
        </g>
    </g>
</svg>
