<?xml version="1.0" encoding="UTF-8" standalone="no"?>
<!DOCTYPE svg PUBLIC "-//W3C//DTD SVG 1.1//EN" "http://www.w3.org/Graphics/SVG/1.1/DTD/svg11.dtd">
<svg width="100%" height="100%" viewBox="0 0 3120 852" version="1.1" xmlns="http://www.w3.org/2000/svg" xmlns:xlink="http://www.w3.org/1999/xlink" xml:space="preserve" xmlns:serif="http://www.serif.com/" style="fill-rule:evenodd;clip-rule:evenodd;stroke-linejoin:round;stroke-miterlimit:1.41421;">
    <g transform="matrix(52.7356,0,0,46.7113,-131765,-25562.5)">
        <path d="M2545.58,560.885L2545.58,551.829L2547.3,551.821L2549.63,555.321L2551.99,551.809L2553.69,551.824L2553.72,560.885L2551.7,560.885L2551.69,555.422L2549.78,558.318L2549.48,558.319L2547.54,555.323L2547.57,560.885L2545.58,560.885Z" style="fill:rgb(4,70,148);fill-rule:nonzero;"/>
    </g>
    <g id="LogoVect" transform="matrix(1,0,0,1,2177.07,430.373)">
        <g transform="matrix(1,0,0,1,-400,-300)">
            <g>
                <path d="M187,503L166,521C166,521 27.884,398.635 93,220C158.116,41.365 376.485,-4.55 504,74L494,84C494,84 402.226,30.638 271,97C139.774,163.362 132.811,385.973 237,450L258,428C258,428 338.76,509.485 441,439C543.24,368.515 499.348,211.552 400,195C300.652,178.448 227.478,207.946 212,322L198,323C198,323 176.695,181.466 322,126C322,126 419.74,88.165 511,165L498,180C498,180 627.495,279.718 534,456C531.618,459.558 471.1,546.591 369.5,559C369.5,559 277.93,584.41 187,503Z" style="fill:rgb(239,25,59);"/>
                <path d="M589,193L617,165C617,165 694.98,293.632 613,419L599,420C599,420 662.156,321.535 589,193Z" style="fill:rgb(239,25,59);"/>
            </g>
        </g>
    </g>
    <g transform="matrix(46.8522,0,0,46.8522,-75659.6,-23929.3)">
        <path d="M1648.49,524.423L1648.59,517.061L1645.51,517.037L1645.51,515.318L1653.79,515.297L1653.79,517.052L1650.78,517.043L1650.78,524.423L1648.49,524.423Z" style="fill:rgb(4,70,148);fill-rule:nonzero;"/>
    </g>
    <g transform="matrix(50.3694,0,0,48.7385,-38148.1,-24960.4)">
        <path d="M772.019,525.244L772.019,516.497L774.11,516.497L774.119,523.558L777.967,523.539L777.959,525.225L772.019,525.244Z" style="fill:rgb(4,70,148);fill-rule:nonzero;"/>
    </g>
    <g id="Calque2">
        <path d="M668.841,638.159L571.301,638.159L564.823,628.955L438.049,322.139C437.029,318.086 436.162,314.884 435.492,312.748C429.533,340.052 368.218,494.833 368.218,494.833C403.576,482.208 438.552,479.633 472.986,482.785L487.949,521.89C405.262,532.529 353.513,566.208 314.16,638.159L212.438,638.159L375.724,212.332L494.829,212.332L668.841,638.159Z" style="fill:rgb(4,70,148);fill-rule:nonzero;"/>
    </g>
    <g transform="matrix(59.2737,0,0,50.1156,-66594.5,-15722.8)">
        <path d="M1141.64,326.399L1141.97,324.58C1143.73,325.571 1146.6,324.658 1145.29,323.63C1145.09,323.472 1144.8,323.207 1144.33,322.942L1143.75,322.619C1142.98,322.182 1142.43,321.763 1142.11,321.362C1141.79,320.962 1141.62,320.494 1141.62,319.959C1141.62,319.244 1141.89,318.67 1142.41,318.236C1142.94,317.803 1143.63,317.586 1144.5,317.586C1145.19,317.586 1145.97,317.686 1146.83,317.885L1146.74,319.759C1145.18,318.868 1142.65,319.485 1143.66,320.369C1143.85,320.531 1144.15,320.77 1144.61,321.031L1145.23,321.377C1146.07,321.846 1146.65,322.278 1146.96,322.672C1147.28,323.067 1147.44,323.547 1147.44,324.113C1147.44,324.918 1147.14,325.549 1146.54,326.006C1145.94,326.463 1145.12,326.751 1144.07,326.751C1143.37,326.751 1142.56,326.594 1141.64,326.399Z" style="fill:rgb(4,70,148);fill-rule:nonzero;"/>
    </g>
</svg>
