<?xml version="1.0" encoding="UTF-8" standalone="no"?>
<!DOCTYPE svg PUBLIC "-//W3C//DTD SVG 1.1//EN" "http://www.w3.org/Graphics/SVG/1.1/DTD/svg11.dtd">
<svg width="100%" height="100%" viewBox="0 0 200 200" version="1.1" xmlns="http://www.w3.org/2000/svg" xmlns:xlink="http://www.w3.org/1999/xlink" xml:space="preserve" xmlns:serif="http://www.serif.com/" style="fill-rule:evenodd;clip-rule:evenodd;stroke-linejoin:round;stroke-miterlimit:1.41421;">
    <g transform="matrix(1.12644,0,0,1.33378,-11.5172,-24.7088)">
        <ellipse cx="99" cy="93.5" rx="87" ry="73.5" style="fill:rgb(4,70,148);"/>
    </g>
    <g transform="matrix(1,0,0,1,-2,-6.03308)">
        <path d="M129,47L200,110C200,110 195.723,213.853 88,203L46,170L100,111L86,98L129,47Z" style="fill:rgb(3,59,120);"/>
    </g>
    <g transform="matrix(1.06154,0,0,1.01471,-13.4308,-12.5919)">
        <ellipse cx="104.5" cy="72" rx="32.5" ry="34" style="fill:white;"/>
    </g>
    <g transform="matrix(-1,0,0,1,240.424,0)">
        <path d="M143.5,94.838C142.511,94.923 141.511,94.967 140.5,94.967C121.459,94.967 106,79.508 106,60.467C106,41.426 121.459,25.967 140.5,25.967C141.511,25.967 142.511,26.01 143.5,26.096C125.861,27.618 112,42.437 112,60.467C112,78.497 125.861,93.316 143.5,94.838Z" style="fill:rgb(242,242,242);"/>
    </g>
    <g transform="matrix(1,0,0,1,-2,-6.03308)">
        <path d="M65,115C70.707,113.119 114.17,105.648 142,115C158.935,120.691 173.376,158.99 169,163C157.304,173.717 127.603,182 102,182C81.264,182 51.911,172.008 39,167C29.663,163.378 44.47,121.766 65,115Z" style="fill:white;"/>
    </g>
    <g transform="matrix(-1,0,0,1,216.641,0)">
        <path d="M120.489,175.471C118.545,175.561 116.615,175.607 114.708,175.607C93.972,175.607 64.619,165.615 51.708,160.607C42.371,156.985 57.178,115.373 77.708,108.607C81.607,107.322 103.129,103.428 125.248,104.072C107.047,104.569 91.155,107.52 87.859,108.607C67.328,115.373 52.522,156.985 61.859,160.607C73.886,165.272 100.182,174.263 120.489,175.471Z" style="fill:rgb(242,242,242);"/>
    </g>
    <g transform="matrix(0.683083,0,0,1.05709,32.6018,-37.2901)">
        <path d="M44,138L44,173C44,173 39.393,180.413 34.254,194.203C34.254,194.203 103.216,214.813 166.01,195.149C166.01,195.149 163.357,181.545 157,174L156,137C156,137 139.202,134.195 137,134L137,172L63,172L63,135C63,135 47.02,136.689 44,138Z" style="fill:rgb(239,25,59);"/>
    </g>
    <g transform="matrix(1,0,0,1,-21.7912,0)">
        <path d="M97.427,106.714C94.777,107.292 92.157,107.979 91.249,108.588L91.249,145.587C91.249,145.587 88.102,153.423 84.592,168C84.592,168 104.398,177.16 130.02,177.934C101.189,178.821 77.791,168 77.791,168C81.302,153.423 84.449,145.587 84.449,145.587L84.449,108.588C86.512,107.202 97.427,105.417 97.427,105.417L97.427,106.714ZM147.975,144.53L147.975,104.36C148.707,104.46 151.795,105.213 154.776,105.96L154.776,144.53L147.975,144.53Z" style="fill:rgb(208,17,52);fill-opacity:0.75;"/>
    </g>
    <g transform="matrix(1,0,0,1,10.5944,-28.2508)">
        <path d="M55,76C55,76 57.288,51.205 63,46C63,46 67.322,38.682 75,37C75,37 91.809,36.067 100,37C100,37 114.043,41.767 116,52C116,52 120.257,72.413 119,76C119,76 90.898,55.912 55,76Z" style="fill:rgb(78,89,114);"/>
    </g>
    <g transform="matrix(1,0,0,1,-27.401,-4.14374e-05)">
        <path d="M93.463,43.665C103.865,39.435 113.411,38.414 121.545,38.954C112.996,39.52 103.32,41.974 93,47.749C93,47.749 93.148,46.144 93.463,43.665ZM123.634,8.375C128.59,8.285 134.215,8.318 138,8.749C138,8.749 152.043,13.516 154,23.749C154,23.749 158.257,44.162 157,47.749C157,47.749 154.168,45.724 149.152,43.603C148.655,36.483 146,23.749 146,23.749C144.043,13.516 130,8.749 130,8.749C128.203,8.544 125.992,8.43 123.634,8.375Z" style="fill:rgb(64,73,91);"/>
    </g>
    <g transform="matrix(1,0,0,1,10.5944,-28.2508)">
        <path d="M55,77.251C55.636,75.963 84.232,57.285 118.406,77.251C118.406,77.251 126.367,93.41 112,87C97.633,80.59 73.744,82.114 63,87C51.133,92.397 53.256,84.221 55,77.251Z" style="fill:rgb(78,89,114);"/>
    </g>
    <g transform="matrix(1,0,0,1,-12.9826,0)">
        <path d="M83.269,59.957C74.909,62.558 76.791,55.288 78.364,49C78.8,48.118 92.373,39.064 111.873,39.886C95.088,40.593 83.762,48.195 83.364,49C82.256,53.43 80.994,58.348 83.269,59.957ZM113.821,54.53C123.136,54.263 133.001,55.464 140.364,58.749C141.266,59.152 142.08,59.465 142.814,59.699C141.618,60.569 139.351,60.528 135.364,58.749C129.309,56.048 121.563,54.755 113.821,54.53Z" style="fill:rgb(64,73,91);"/>
    </g>
    <g transform="matrix(0.352518,0,0,0.352518,66.8697,-23.4266)">
        <path d="M81,139L81,143L88,143L88,161L94,161L94,143L101,143L101,139L81,139Z" style="fill:rgb(4,70,148);"/>
        <path d="M135,161L135,139L140,139L146,147L152,139L157,139L157,161L151,161L151,148L146,155L145,155L140,148L140,161L135,161" style="fill:rgb(4,70,148);"/>
        <path d="M18,161L27,139L33,139L42,161L37,161L30,144L26,154C26,154 27.419,152.181 32,153L33,155C33,155 26.996,154.15 23,161L18,161Z" style="fill:rgb(4,70,148);"/>
        <path d="M45,139L51,139L51,157L61,157L61,161L45,161L45,139Z" style="fill:rgb(4,70,148);"/>
        <g transform="matrix(2.69876,0,0,2.48302,-107.378,-290.503)">
            <path d="M63.52,181.543L63.52,180.055C64.454,180.446 65.253,180.641 65.917,180.641C66.381,180.641 66.748,180.537 67.015,180.33C67.283,180.123 67.417,179.842 67.417,179.487C67.417,179.205 67.333,178.968 67.165,178.775C66.997,178.581 66.678,178.352 66.21,178.086L65.629,177.764C64.852,177.326 64.303,176.907 63.983,176.507C63.663,176.107 63.503,175.639 63.503,175.104C63.503,174.389 63.765,173.815 64.291,173.381C64.816,172.947 65.51,172.731 66.374,172.731C67.065,172.731 67.844,172.83 68.712,173.03L68.712,174.418C67.825,174.086 67.124,173.92 66.608,173.92C66.21,173.92 65.89,174.009 65.65,174.187C65.41,174.364 65.29,174.598 65.29,174.887C65.29,175.125 65.374,175.334 65.542,175.514C65.71,175.694 66.026,175.914 66.491,176.176L67.112,176.522C67.948,176.99 68.524,177.422 68.84,177.817C69.157,178.211 69.315,178.692 69.315,179.258C69.315,180.063 69.016,180.694 68.419,181.151C67.821,181.608 66.997,181.836 65.946,181.836C65.251,181.836 64.442,181.738 63.52,181.543Z" style="fill:rgb(4,70,148);fill-rule:nonzero;"/>
        </g>
        <g id="LogoVect" transform="matrix(0.05125,0,0,0.05125,119.5,149.912)">
            <g transform="matrix(1,0,0,1,-400,-300)">
                <g>
                    <path d="M187,503L166,521C166,521 27.884,398.635 93,220C158.116,41.365 376.485,-4.55 504,74L494,84C494,84 402.226,30.638 271,97C139.774,163.362 132.811,385.973 237,450L258,428C258,428 338.76,509.485 441,439C543.24,368.515 499.348,211.552 400,195C300.652,178.448 227.478,207.946 212,322L198,323C198,323 176.695,181.466 322,126C322,126 419.74,88.165 511,165L498,180C498,180 627.495,279.718 534,456C531.618,459.558 471.1,546.591 369.5,559C369.5,559 277.93,584.41 187,503Z" style="fill:rgb(239,25,59);"/>
                    <path d="M589,193L617,165C617,165 694.98,293.632 613,419L599,420C599,420 662.156,321.535 589,193Z" style="fill:rgb(239,25,59);"/>
                </g>
            </g>
        </g>
    </g>
</svg>
